<?xml version="1.0" standalone="no"?>
<!DOCTYPE svg PUBLIC "-//W3C//DTD SVG 20010904//EN"
 "http://www.w3.org/TR/2001/REC-SVG-20010904/DTD/svg10.dtd">
<svg version="1.0" xmlns="http://www.w3.org/2000/svg"
 width="576.000000pt" height="576.000000pt" viewBox="0 0 576.000000 576.000000"
 preserveAspectRatio="xMidYMid meet">
<metadata>
Created by potrace 1.14, written by Peter Selinger 2001-2017
</metadata>
<g transform="translate(0.000000,576.000000) scale(0.100000,-0.100000)"
fill="#000000" stroke="none">
<path d="M2575 4802 l-110 -3 -40 -67 c-22 -37 -48 -83 -58 -102 -11 -19 -25
-42 -33 -51 -8 -8 -14 -19 -14 -22 0 -4 -22 -44 -50 -88 -27 -44 -50 -82 -50
-83 0 -3 -118 -205 -149 -256 -14 -23 -184 -309 -201 -339 -8 -14 -37 -64 -65
-111 -27 -46 -54 -92 -60 -102 -5 -9 -51 -86 -101 -170 -175 -294 -287 -483
-305 -515 -10 -17 -29 -49 -42 -70 -13 -21 -27 -45 -30 -53 -4 -8 -16 -28 -27
-45 -11 -16 -26 -42 -32 -57 -7 -16 -16 -28 -20 -28 -4 0 -8 -4 -8 -9 0 -5
-38 -73 -85 -152 -47 -78 -85 -143 -85 -146 0 -2 -10 -17 -22 -33 -12 -16 -19
-32 -16 -35 3 -3 77 19 164 49 206 71 555 192 574 200 8 3 35 12 60 20 25 8
137 46 250 86 113 39 233 80 267 92 66 21 77 32 125 118 22 38 190 325 217
370 18 30 146 245 157 265 6 11 33 57 60 102 27 46 96 163 153 260 58 98 117
197 133 220 15 23 28 45 28 49 0 4 16 31 35 60 19 29 35 55 35 59 0 4 8 19 19
33 10 15 29 47 43 72 14 25 78 133 142 241 64 108 116 202 116 208 0 6 5 11
10 11 6 0 10 5 10 11 0 7 -23 10 -65 7 -36 -1 -65 -1 -65 2 0 3 -30 4 -67 3
-38 -1 -126 -2 -198 -2 -174 0 -217 -1 -226 -7 -4 -2 -10 -1 -13 4 -2 4 -34 5
-70 2 -36 -3 -66 -3 -66 0 0 6 -65 6 -225 2z"/>
<path d="M1927 4794 c-1 -1 -24 -5 -52 -8 -27 -4 -61 -8 -75 -11 -14 -3 -38
-7 -55 -10 -146 -23 -320 -83 -503 -172 -399 -195 -751 -577 -915 -993 -28
-71 -75 -215 -82 -249 -2 -13 -7 -31 -10 -41 -3 -10 -8 -31 -10 -46 -3 -24
-89 -534 -109 -649 -3 -16 -8 -46 -11 -65 -3 -19 -10 -60 -15 -90 -6 -30 -13
-74 -16 -98 -3 -24 -7 -49 -8 -55 -10 -49 -37 -208 -40 -237 -1 -14 -6 -31
-10 -38 -4 -7 -5 -12 -3 -12 3 0 1 -18 -4 -41 -10 -44 -5 -64 14 -52 7 4 17 8
22 9 6 1 102 35 215 74 113 40 212 74 220 77 9 2 29 27 45 56 17 28 41 70 55
93 14 24 50 85 80 136 30 51 59 101 65 110 5 10 29 50 53 89 23 39 42 76 42
80 0 5 4 9 9 9 5 0 13 10 17 22 4 13 15 34 24 48 21 30 182 304 213 361 11 21
24 39 29 39 4 0 8 6 8 13 0 7 15 35 33 62 18 28 33 53 35 58 1 4 8 17 16 30
48 76 236 400 236 408 0 5 4 9 8 9 4 0 18 19 30 43 12 23 26 49 32 57 16 25
150 252 150 256 0 1 23 39 50 83 28 44 50 84 50 88 0 3 6 14 14 22 7 9 25 36
39 61 13 25 69 119 123 210 54 91 111 189 127 218 l29 52 -82 -2 c-45 -2 -82
-4 -83 -4z"/>
<path d="M3904 4727 c-17 -29 -97 -164 -179 -302 -81 -137 -156 -266 -167
-285 -11 -19 -24 -39 -28 -45 -4 -5 -19 -30 -32 -55 -14 -25 -59 -102 -102
-172 -42 -71 -76 -132 -76 -138 0 -5 -4 -10 -9 -10 -5 0 -11 -8 -14 -17 -6
-17 -33 -65 -50 -88 -4 -5 -42 -68 -84 -140 -76 -131 -192 -327 -222 -377 -49
-82 -111 -193 -111 -198 0 -5 522 -184 570 -196 3 0 12 -4 20 -7 69 -29 325
-106 331 -100 4 5 30 45 56 90 26 45 89 151 138 235 50 84 92 157 94 163 2 5
7 12 11 15 4 3 17 23 29 45 12 22 26 47 31 55 5 8 50 83 98 165 49 83 141 238
204 345 63 107 128 218 144 245 15 28 31 52 34 55 3 3 11 16 18 30 20 39 45
81 75 127 15 24 27 44 27 46 0 2 25 45 55 95 30 50 55 94 55 96 0 3 -48 37
-106 76 -150 98 -279 159 -504 238 -19 6 -21 7 -105 27 -38 9 -83 19 -100 21
-16 3 -39 7 -51 9 -16 3 -27 -7 -50 -48z"/>
<path d="M5052 4168 c-6 -6 -12 -16 -12 -21 0 -5 -8 -21 -19 -35 -10 -15 -29
-47 -43 -72 -14 -25 -53 -91 -87 -146 -33 -56 -61 -106 -61 -112 0 -6 -3 -12
-8 -14 -6 -2 -292 -481 -336 -563 -6 -11 -13 -22 -16 -25 -3 -3 -11 -16 -18
-29 -30 -52 -54 -94 -170 -291 -67 -113 -125 -210 -129 -215 -4 -6 -19 -30
-32 -55 -14 -25 -28 -47 -32 -50 -4 -3 -10 -17 -14 -32 l-7 -26 214 -71 c117
-39 247 -82 288 -97 41 -14 80 -27 85 -28 20 -4 60 -17 80 -26 35 -15 1020
-338 1023 -336 1 2 -4 38 -12 82 -17 89 -26 147 -31 184 -1 14 -10 68 -19 120
-19 107 -19 109 -41 240 -8 52 -17 104 -19 115 -2 11 -7 40 -11 65 -4 25 -8
52 -10 60 -1 8 -6 38 -10 65 -5 28 -9 52 -10 55 -1 3 -5 32 -10 65 -10 64 -11
74 -15 78 -1 1 -3 13 -4 27 -4 36 -17 121 -23 145 -2 11 -6 29 -8 40 -3 11 -7
31 -10 44 -2 13 -12 49 -21 80 -9 31 -17 63 -19 71 -13 68 -142 348 -196 427
-16 23 -29 46 -29 51 0 6 -3 12 -8 14 -4 2 -24 26 -44 55 -38 53 -61 81 -113
140 -24 26 -33 31 -43 21z"/>
<path d="M2782 2545 c-18 -8 -33 -14 -35 -13 -2 1 -31 -9 -117 -40 -8 -3 -19
-6 -25 -8 -5 -1 -41 -13 -80 -27 -38 -14 -135 -48 -215 -76 -80 -27 -230 -80
-335 -116 -104 -37 -194 -68 -200 -69 -5 -1 -16 -5 -22 -9 -7 -5 -13 -5 -13
-1 0 3 -6 2 -12 -3 -7 -6 -26 -13 -43 -17 -16 -4 -43 -14 -60 -21 -16 -7 -70
-27 -120 -43 -170 -57 -556 -192 -566 -197 -5 -4 -18 -8 -28 -10 -19 -3 -192
-63 -256 -88 -16 -6 -34 -12 -40 -13 -5 -1 -55 -19 -110 -39 -55 -20 -114 -40
-131 -45 -56 -13 -56 -15 -51 -119 3 -53 8 -109 12 -126 4 -16 8 -37 10 -45 2
-8 4 -16 5 -17 2 -2 3 -7 4 -11 0 -5 19 -44 40 -86 37 -72 128 -178 196 -229
39 -29 111 -64 181 -88 71 -24 245 -35 301 -18 18 5 47 12 63 14 54 9 189 83
248 136 l58 52 27 -25 c15 -14 41 -37 57 -52 42 -38 178 -102 253 -120 91 -21
249 -15 331 13 97 33 155 66 227 127 73 62 60 62 129 -1 61 -55 126 -91 226
-126 71 -24 245 -35 301 -18 18 5 47 12 63 14 54 9 189 83 248 136 l58 52 27
-25 c15 -14 41 -37 57 -52 42 -38 178 -102 253 -120 91 -21 249 -15 331 13 97
33 155 66 227 127 73 62 60 62 129 -1 61 -55 126 -91 226 -126 71 -24 245 -35
301 -18 18 5 47 12 63 14 17 3 66 23 111 45 193 94 331 293 349 505 3 30 6 59
6 63 1 4 0 12 -1 17 -1 6 -1 24 0 41 1 24 -4 33 -25 42 -14 7 -33 12 -41 12
-8 0 -22 4 -32 10 -9 5 -62 23 -117 40 -55 18 -109 36 -120 40 -20 9 -1652
551 -1670 555 -5 1 -17 5 -25 8 -21 9 -252 86 -271 91 -9 3 -84 27 -168 55
-83 28 -152 51 -153 51 -2 -1 -18 -7 -36 -15z"/>
</g>
</svg>
